<svg width="100" height="28" viewBox="0 0 100 28" fill="none" xmlns="http://www.w3.org/2000/svg">
<path d="M12.916 21.1396H9.49995C9.07195 21.1396 8.74395 20.8116 8.74395 20.3836C8.74395 19.9556 9.07195 19.6276 9.49995 19.6276H12.916C13.344 19.6276 13.672 19.9556 13.672 20.3836C13.672 20.8116 13.344 21.1396 12.916 21.1396Z" fill="#F472B6"/>
<path d="M11.2078 24.3804C8.94383 24.3804 7.09583 22.5324 7.09583 20.2684C7.09583 18.0044 8.94383 16.1564 11.2078 16.1564C12.3758 16.1564 13.4318 16.6364 14.1678 17.4284L15.3598 16.2364C14.2478 15.1244 12.7918 14.4204 11.2078 14.4204C7.88783 14.4204 5.20783 17.0764 5.20783 20.2684C5.20783 23.4364 7.88783 26.1164 11.2078 26.1164C12.7918 26.1164 14.2478 25.4124 15.3598 24.3004L14.1678 23.1084C13.4318 23.9004 12.3758 24.3804 11.2078 24.3804Z" fill="#F472B6"/>
<path d="M37.9497 18.374C37.3977 17.47 36.5417 16.918 35.5017 16.918H31.7817C31.2537 16.918 30.8217 17.35 30.8217 17.878V26.242C30.8217 26.77 31.2537 27.202 31.7817 27.202H33.0337C33.5617 27.202 33.9937 26.77 33.9937 26.242V23.518L35.5257 23.23L36.7537 26.31C36.9457 26.77 37.4257 27.058 37.8817 26.89L39.1337 26.41C39.5897 26.228 39.8537 25.748 39.6857 25.288L37.9497 18.374ZM35.4297 21.642L33.9937 21.93V18.844H35.4297C35.9817 18.844 36.4617 19.324 36.4617 19.876C36.4617 20.452 35.9817 21.642 35.4297 21.642Z" fill="white"/>
<path d="M48.0673 17.878C48.0673 17.35 47.6353 16.918 47.1073 16.918H41.5153C40.9873 16.918 40.5553 17.35 40.5553 17.878V26.242C40.5553 26.77 40.9873 27.202 41.5153 27.202H47.1073C47.6353 27.202 48.0673 26.77 48.0673 26.242V17.878ZM45.6193 25.288H42.9793V18.844H45.6193V25.288Z" fill="white"/>
<path d="M57.697 18.374C57.145 17.47 56.289 16.918 55.249 16.918H51.529C50.999 16.918 50.569 17.35 50.569 17.878V26.242C50.569 26.77 50.999 27.202 51.529 27.202H52.781C53.309 27.202 53.741 26.77 53.741 26.242V23.518L55.273 23.23L56.501 26.31C56.693 26.77 57.173 27.058 57.629 26.89L58.881 26.41C59.337 26.228 59.601 25.748 59.433 25.288L57.697 18.374ZM55.177 21.642L53.741 21.93V18.844H55.177C55.729 18.844 56.209 19.324 56.209 19.876C56.209 20.452 55.729 21.642 55.177 21.642Z" fill="white"/>
<path d="M26.4333 11.0016C26.4333 10.4736 26.0013 10.0416 25.4733 10.0416H19.8813C19.3533 10.0416 18.9213 10.4736 18.9213 11.0016V19.3656C18.9213 19.8936 19.3533 20.3256 19.8813 20.3256H25.4733C26.0013 20.3256 26.4333 19.8936 26.4333 19.3656V11.0016ZM23.9853 18.4116H21.3453V11.9676H23.9853V18.4116Z" fill="white"/>
<path d="M28.0165 20.3256H29.2685C29.7965 20.3256 30.2285 19.8936 30.2285 19.3656V11.0016C30.2285 10.4736 29.7965 10.0416 29.2685 10.0416H28.0165C27.4885 10.0416 27.0565 10.4736 27.0565 11.0016V19.3656C27.0565 19.8936 27.4885 20.3256 28.0165 20.3256Z" fill="white"/>
<path d="M70.0895 24.3624C69.6095 24.3624 69.1535 24.1464 68.8255 23.7944L65.3575 19.7864V19.7864L63.8495 21.5744C63.5215 21.9264 63.0655 22.1424 62.5855 22.1424C61.8735 22.1424 61.2815 21.5744 61.2815 20.8384V11.0016C61.2815 10.4736 61.7135 10.0416 62.2415 10.0416H63.4935C64.0215 10.0416 64.4535 10.4736 64.4535 11.0016V17.0664L68.8255 11.7504C69.1295 11.3744 69.5855 11.1584 70.0895 11.1584C70.8015 11.1584 71.3935 11.7264 71.3935 12.4624V21.4544C71.3935 21.9824 70.9615 22.4144 70.4335 22.4144H69.1815C68.6535 22.4144 68.2215 21.9824 68.2215 21.4544V14.2104L64.4535 18.6504L68.2215 23.1144V23.1144C68.5495 23.5144 68.5255 24.0664 68.1495 24.4424C68.1495 24.4424 68.1495 24.4424 68.1255 24.4664L69.1815 25.6824C69.3255 25.8504 69.5175 25.9704 69.7335 26.0184L69.9735 26.0664C70.1655 26.1144 70.3575 26.1144 70.5495 26.0664L71.8015 25.7544C72.2575 25.6344 72.5855 25.2144 72.5855 24.7344V12.4624C72.5855 10.9264 71.4655 9.71041 70.0895 9.71041C68.7375 9.71041 67.5695 10.8784 67.5695 10.8784L64.1295 15.0264L62.7255 13.3344V11.0016C62.7255 9.92961 61.8495 9.07761 60.8175 9.07761H58.6095C58.0815 9.07761 57.6495 9.50961 57.6495 10.0376V20.8384C57.6495 22.3744 58.7695 23.5904 60.1455 23.5904C60.9855 23.5904 61.7295 23.1584 62.1855 22.5184L64.1295 20.2064L67.5695 24.3824C67.5695 24.3824 68.7375 25.5504 70.0895 25.5504C71.4655 25.5504 72.5855 24.3344 72.5855 22.8944V22.4144H73.8375C74.3655 22.4144 74.7975 21.9824 74.7975 21.4544V12.4624C74.7975 10.9264 73.6775 9.71041 72.3015 9.71041C71.4615 9.71041 70.7175 10.1424 70.2615 10.7784L69.9735 10.2984C69.1335 9.22641 67.8815 8.52241 66.4775 8.52241C64.6055 8.52241 63.0455 9.75841 62.5855 11.4504L62.2415 10.3944C61.4015 9.32241 60.1495 8.61841 58.7455 8.61841C57.0295 8.61841 55.5935 9.90241 55.5935 11.5944V20.8384C55.5935 23.1744 57.4415 25.0464 59.7775 25.0464C60.8095 25.0464 61.7535 24.5904 62.4135 23.8544L63.8495 25.5504C64.7175 26.5504 65.9935 27.1424 67.3695 27.1424C68.7455 27.1424 70.0215 26.5504 70.8895 25.5504L72.1175 24.1224C72.9335 24.9384 73.9895 25.4184 75.1335 25.4184C77.0295 25.4184 78.5655 23.8824 78.5655 21.9864V12.4624C78.5655 10.1264 76.7175 8.25441 74.3815 8.25441C72.0455 8.25441 70.1975 10.1264 70.1975 12.4624V21.4544C70.1975 22.5264 69.3215 23.3784 68.2495 23.3784C67.1775 23.3784 66.3015 22.5264 66.3015 21.4544V13.8464L69.4535 17.6144V20.8384L70.0895 24.3624Z" fill="white"/>
<path d="M96.0963 11.0016C96.0963 10.4736 95.6643 10.0416 95.1363 10.0416H89.5443C89.0163 10.0416 88.5843 10.4736 88.5843 11.0016V26.2416C88.5843 26.7696 89.0163 27.2016 89.5443 27.2016H90.7963C91.3243 27.2016 91.7563 26.7696 91.7563 26.2416V18.5296L95.5443 26.3376C95.7363 26.7936 96.2163 27.0816 96.6723 26.9136L97.9243 26.4336C98.3803 26.2516 98.6443 25.7716 98.4763 25.3116L93.5923 12.9216L95.1363 12.6336C95.6643 12.5376 96.0963 12.1056 96.0963 11.5776V11.0016ZM91.7563 11.9676V16.9456L89.9683 15.1576L91.7563 11.9676Z" fill="white"/>
<path d="M86.8298 17.878C86.8298 17.35 86.3978 16.918 85.8698 16.918H80.2778C79.7498 16.918 79.3178 17.35 79.3178 17.878V26.242C79.3178 26.77 79.7498 27.202 80.2778 27.202H85.8698C86.3978 27.202 86.8298 26.77 86.8298 26.242V17.878ZM84.3818 25.288H81.7418V18.844H84.3818V25.288Z" fill="white"/>
</svg>
